<mxfile host="app.diagrams.net" modified="2023-11-13T14:15:50.330Z" agent="Mozilla/5.0 (Windows NT 10.0; Win64; x64) AppleWebKit/537.36 (KHTML, like Gecko) Chrome/119.0.0.0 Safari/537.36" etag="rdJqsNprrdhr5S7KWzrX" version="22.1.0" type="device">
  <diagram name="Página-1" id="dcDIbgFrRfPk0RHgEe2I">
    <mxGraphModel dx="2261" dy="790" grid="1" gridSize="10" guides="1" tooltips="1" connect="1" arrows="1" fold="1" page="1" pageScale="1" pageWidth="827" pageHeight="1169" math="0" shadow="0">
      <root>
        <mxCell id="0" />
        <mxCell id="1" parent="0" />
        <mxCell id="rt-HZhOnsBdVdCcZP3zS-18" style="edgeStyle=orthogonalEdgeStyle;rounded=0;orthogonalLoop=1;jettySize=auto;html=1;entryX=0;entryY=0;entryDx=0;entryDy=85;entryPerimeter=0;endArrow=none;endFill=0;" parent="1" source="rt-HZhOnsBdVdCcZP3zS-1" target="rt-HZhOnsBdVdCcZP3zS-3" edge="1">
          <mxGeometry relative="1" as="geometry">
            <Array as="points">
              <mxPoint x="431" y="190" />
              <mxPoint x="431" y="248" />
            </Array>
          </mxGeometry>
        </mxCell>
        <mxCell id="rt-HZhOnsBdVdCcZP3zS-1" value="Frontend" style="verticalAlign=top;align=left;spacingTop=8;spacingLeft=2;spacingRight=12;shape=cube;size=10;direction=south;fontStyle=4;html=1;whiteSpace=wrap;" parent="1" vertex="1">
          <mxGeometry x="450" y="55" width="266" height="160" as="geometry" />
        </mxCell>
        <mxCell id="rt-HZhOnsBdVdCcZP3zS-56" style="edgeStyle=orthogonalEdgeStyle;rounded=0;orthogonalLoop=1;jettySize=auto;html=1;entryX=0.083;entryY=0.421;entryDx=0;entryDy=0;entryPerimeter=0;endArrow=none;endFill=0;" parent="1" source="rt-HZhOnsBdVdCcZP3zS-2" target="rt-HZhOnsBdVdCcZP3zS-45" edge="1">
          <mxGeometry relative="1" as="geometry">
            <Array as="points">
              <mxPoint x="449" y="790" />
              <mxPoint x="449" y="790" />
            </Array>
          </mxGeometry>
        </mxCell>
        <mxCell id="rt-HZhOnsBdVdCcZP3zS-63" style="edgeStyle=orthogonalEdgeStyle;rounded=0;orthogonalLoop=1;jettySize=auto;html=1;endArrow=none;endFill=0;" parent="1" source="rt-HZhOnsBdVdCcZP3zS-2" target="rt-HZhOnsBdVdCcZP3zS-62" edge="1">
          <mxGeometry relative="1" as="geometry" />
        </mxCell>
        <mxCell id="rt-HZhOnsBdVdCcZP3zS-2" value="Backend - Private Zone" style="verticalAlign=top;align=left;spacingTop=8;spacingLeft=2;spacingRight=12;shape=cube;size=10;direction=south;fontStyle=4;html=1;whiteSpace=wrap;" parent="1" vertex="1">
          <mxGeometry x="150" y="560" width="590" height="210" as="geometry" />
        </mxCell>
        <mxCell id="rt-HZhOnsBdVdCcZP3zS-43" style="edgeStyle=orthogonalEdgeStyle;rounded=0;orthogonalLoop=1;jettySize=auto;html=1;endArrow=none;endFill=0;" parent="1" source="rt-HZhOnsBdVdCcZP3zS-3" target="rt-HZhOnsBdVdCcZP3zS-37" edge="1">
          <mxGeometry relative="1" as="geometry" />
        </mxCell>
        <mxCell id="rt-HZhOnsBdVdCcZP3zS-3" value="Balanceador de carga PM2" style="verticalAlign=top;align=left;spacingTop=8;spacingLeft=2;spacingRight=12;shape=cube;size=10;direction=south;fontStyle=4;html=1;whiteSpace=wrap;" parent="1" vertex="1">
          <mxGeometry x="335.5" y="280" width="180" height="80" as="geometry" />
        </mxCell>
        <mxCell id="rt-HZhOnsBdVdCcZP3zS-11" style="edgeStyle=orthogonalEdgeStyle;rounded=0;orthogonalLoop=1;jettySize=auto;html=1;entryX=0;entryY=0;entryDx=85;entryDy=266;entryPerimeter=0;endArrow=none;endFill=0;" parent="1" source="rt-HZhOnsBdVdCcZP3zS-5" target="rt-HZhOnsBdVdCcZP3zS-1" edge="1">
          <mxGeometry relative="1" as="geometry">
            <Array as="points">
              <mxPoint x="350" y="140" />
              <mxPoint x="350" y="140" />
            </Array>
          </mxGeometry>
        </mxCell>
        <mxCell id="rt-HZhOnsBdVdCcZP3zS-5" value="UserPC" style="verticalAlign=top;align=left;spacingTop=8;spacingLeft=2;spacingRight=12;shape=cube;size=10;direction=south;fontStyle=4;html=1;whiteSpace=wrap;" parent="1" vertex="1">
          <mxGeometry x="140" y="80" width="170" height="110" as="geometry" />
        </mxCell>
        <mxCell id="rt-HZhOnsBdVdCcZP3zS-6" value="Actor" style="shape=umlActor;verticalLabelPosition=bottom;verticalAlign=top;html=1;" parent="1" vertex="1">
          <mxGeometry x="210" y="100" width="30" height="60" as="geometry" />
        </mxCell>
        <mxCell id="rt-HZhOnsBdVdCcZP3zS-12" value="&amp;lt;&amp;lt;HTTP/HTTPS&amp;gt;&amp;gt;" style="text;html=1;align=center;verticalAlign=middle;resizable=0;points=[];autosize=1;strokeColor=none;fillColor=none;" parent="1" vertex="1">
          <mxGeometry x="325" y="138" width="130" height="30" as="geometry" />
        </mxCell>
        <mxCell id="rt-HZhOnsBdVdCcZP3zS-16" value="«UI»&lt;br&gt;&lt;b&gt;Angular&lt;/b&gt;" style="html=1;dropTarget=0;whiteSpace=wrap;" parent="1" vertex="1">
          <mxGeometry x="505" y="108" width="150" height="60" as="geometry" />
        </mxCell>
        <mxCell id="rt-HZhOnsBdVdCcZP3zS-17" value="" style="shape=module;jettyWidth=8;jettyHeight=4;" parent="rt-HZhOnsBdVdCcZP3zS-16" vertex="1">
          <mxGeometry x="1" width="20" height="20" relative="1" as="geometry">
            <mxPoint x="-27" y="7" as="offset" />
          </mxGeometry>
        </mxCell>
        <mxCell id="rt-HZhOnsBdVdCcZP3zS-19" value="&amp;lt;&amp;lt;HTTP/HTTPS&amp;gt;&amp;gt;" style="text;html=1;align=center;verticalAlign=middle;resizable=0;points=[];autosize=1;strokeColor=none;fillColor=none;" parent="1" vertex="1">
          <mxGeometry x="440" y="250" width="130" height="30" as="geometry" />
        </mxCell>
        <mxCell id="rt-HZhOnsBdVdCcZP3zS-21" value="&amp;lt;&amp;lt;TCP/IP&amp;gt;&amp;gt;" style="text;html=1;align=center;verticalAlign=middle;resizable=0;points=[];autosize=1;strokeColor=none;fillColor=none;" parent="1" vertex="1">
          <mxGeometry x="455" y="780" width="90" height="30" as="geometry" />
        </mxCell>
        <mxCell id="rt-HZhOnsBdVdCcZP3zS-23" value="&amp;lt;&amp;lt;HTTP/HTTPS&amp;gt;&amp;gt;" style="text;html=1;align=center;verticalAlign=middle;resizable=0;points=[];autosize=1;strokeColor=none;fillColor=none;" parent="1" vertex="1">
          <mxGeometry x="430" y="370" width="130" height="30" as="geometry" />
        </mxCell>
        <mxCell id="rt-HZhOnsBdVdCcZP3zS-24" value="«Microservice»&lt;br&gt;&lt;b&gt;agua_service&lt;/b&gt;" style="html=1;dropTarget=0;whiteSpace=wrap;" parent="1" vertex="1">
          <mxGeometry x="219" y="610" width="150" height="60" as="geometry" />
        </mxCell>
        <mxCell id="rt-HZhOnsBdVdCcZP3zS-25" value="" style="shape=module;jettyWidth=8;jettyHeight=4;" parent="rt-HZhOnsBdVdCcZP3zS-24" vertex="1">
          <mxGeometry x="1" width="20" height="20" relative="1" as="geometry">
            <mxPoint x="-27" y="7" as="offset" />
          </mxGeometry>
        </mxCell>
        <mxCell id="rt-HZhOnsBdVdCcZP3zS-44" style="edgeStyle=orthogonalEdgeStyle;rounded=0;orthogonalLoop=1;jettySize=auto;html=1;entryX=0.053;entryY=0.533;entryDx=0;entryDy=0;entryPerimeter=0;endArrow=none;endFill=0;" parent="1" source="rt-HZhOnsBdVdCcZP3zS-37" target="rt-HZhOnsBdVdCcZP3zS-2" edge="1">
          <mxGeometry relative="1" as="geometry" />
        </mxCell>
        <mxCell id="rt-HZhOnsBdVdCcZP3zS-37" value="ApiGateway" style="verticalAlign=top;align=left;spacingTop=8;spacingLeft=2;spacingRight=12;shape=cube;size=10;direction=south;fontStyle=4;html=1;whiteSpace=wrap;" parent="1" vertex="1">
          <mxGeometry x="330.5" y="400" width="190" height="110" as="geometry" />
        </mxCell>
        <mxCell id="rt-HZhOnsBdVdCcZP3zS-38" value="«WebService»&lt;br&gt;&lt;b&gt;api_gateway&lt;/b&gt;" style="html=1;dropTarget=0;whiteSpace=wrap;" parent="1" vertex="1">
          <mxGeometry x="350.5" y="440" width="150" height="60" as="geometry" />
        </mxCell>
        <mxCell id="rt-HZhOnsBdVdCcZP3zS-39" value="" style="shape=module;jettyWidth=8;jettyHeight=4;" parent="rt-HZhOnsBdVdCcZP3zS-38" vertex="1">
          <mxGeometry x="1" width="20" height="20" relative="1" as="geometry">
            <mxPoint x="-27" y="7" as="offset" />
          </mxGeometry>
        </mxCell>
        <mxCell id="rt-HZhOnsBdVdCcZP3zS-45" value="Database" style="verticalAlign=top;align=left;spacingTop=8;spacingLeft=2;spacingRight=12;shape=cube;size=10;direction=south;fontStyle=4;html=1;whiteSpace=wrap;" parent="1" vertex="1">
          <mxGeometry x="325" y="840" width="214.5" height="140" as="geometry" />
        </mxCell>
        <mxCell id="rt-HZhOnsBdVdCcZP3zS-48" value="&amp;lt;&amp;lt;HTTP/HTTPS&amp;gt;&amp;gt;" style="text;html=1;align=center;verticalAlign=middle;resizable=0;points=[];autosize=1;strokeColor=none;fillColor=none;" parent="1" vertex="1">
          <mxGeometry x="420" y="520" width="130" height="30" as="geometry" />
        </mxCell>
        <mxCell id="rt-HZhOnsBdVdCcZP3zS-50" value="«Microservice»&lt;br&gt;&lt;b&gt;aire_service&lt;/b&gt;" style="html=1;dropTarget=0;whiteSpace=wrap;" parent="1" vertex="1">
          <mxGeometry x="400" y="610" width="150" height="60" as="geometry" />
        </mxCell>
        <mxCell id="rt-HZhOnsBdVdCcZP3zS-51" value="" style="shape=module;jettyWidth=8;jettyHeight=4;" parent="rt-HZhOnsBdVdCcZP3zS-50" vertex="1">
          <mxGeometry x="1" width="20" height="20" relative="1" as="geometry">
            <mxPoint x="-27" y="7" as="offset" />
          </mxGeometry>
        </mxCell>
        <mxCell id="rt-HZhOnsBdVdCcZP3zS-52" value="«Process»&lt;br&gt;&lt;b&gt;cron_jobs&lt;/b&gt;" style="html=1;dropTarget=0;whiteSpace=wrap;" parent="1" vertex="1">
          <mxGeometry x="219" y="690" width="150" height="60" as="geometry" />
        </mxCell>
        <mxCell id="rt-HZhOnsBdVdCcZP3zS-53" value="" style="shape=module;jettyWidth=8;jettyHeight=4;" parent="rt-HZhOnsBdVdCcZP3zS-52" vertex="1">
          <mxGeometry x="1" width="20" height="20" relative="1" as="geometry">
            <mxPoint x="-27" y="7" as="offset" />
          </mxGeometry>
        </mxCell>
        <mxCell id="rt-HZhOnsBdVdCcZP3zS-54" value="«Microservice»&lt;br&gt;&lt;b&gt;adapter_service&lt;/b&gt;" style="html=1;dropTarget=0;whiteSpace=wrap;" parent="1" vertex="1">
          <mxGeometry x="400" y="690" width="150" height="60" as="geometry" />
        </mxCell>
        <mxCell id="rt-HZhOnsBdVdCcZP3zS-55" value="" style="shape=module;jettyWidth=8;jettyHeight=4;" parent="rt-HZhOnsBdVdCcZP3zS-54" vertex="1">
          <mxGeometry x="1" width="20" height="20" relative="1" as="geometry">
            <mxPoint x="-27" y="7" as="offset" />
          </mxGeometry>
        </mxCell>
        <mxCell id="rt-HZhOnsBdVdCcZP3zS-57" value="«Microservice»&lt;br&gt;&lt;b&gt;auth_service&lt;/b&gt;" style="html=1;dropTarget=0;whiteSpace=wrap;" parent="1" vertex="1">
          <mxGeometry x="570" y="610" width="150" height="60" as="geometry" />
        </mxCell>
        <mxCell id="rt-HZhOnsBdVdCcZP3zS-58" value="" style="shape=module;jettyWidth=8;jettyHeight=4;" parent="rt-HZhOnsBdVdCcZP3zS-57" vertex="1">
          <mxGeometry x="1" width="20" height="20" relative="1" as="geometry">
            <mxPoint x="-27" y="7" as="offset" />
          </mxGeometry>
        </mxCell>
        <mxCell id="rt-HZhOnsBdVdCcZP3zS-60" value="«DataAccess»&lt;br&gt;&lt;b&gt;MariaDB&lt;/b&gt;" style="html=1;dropTarget=0;whiteSpace=wrap;" parent="1" vertex="1">
          <mxGeometry x="357.25" y="890" width="150" height="60" as="geometry" />
        </mxCell>
        <mxCell id="rt-HZhOnsBdVdCcZP3zS-61" value="" style="shape=module;jettyWidth=8;jettyHeight=4;" parent="rt-HZhOnsBdVdCcZP3zS-60" vertex="1">
          <mxGeometry x="1" width="20" height="20" relative="1" as="geometry">
            <mxPoint x="-27" y="7" as="offset" />
          </mxGeometry>
        </mxCell>
        <mxCell id="rt-HZhOnsBdVdCcZP3zS-66" style="edgeStyle=orthogonalEdgeStyle;rounded=0;orthogonalLoop=1;jettySize=auto;html=1;entryX=0;entryY=0;entryDx=0;entryDy=102.25;entryPerimeter=0;endArrow=none;endFill=0;" parent="1" source="rt-HZhOnsBdVdCcZP3zS-62" target="rt-HZhOnsBdVdCcZP3zS-65" edge="1">
          <mxGeometry relative="1" as="geometry">
            <Array as="points">
              <mxPoint x="-68" y="790" />
              <mxPoint x="-68" y="790" />
            </Array>
          </mxGeometry>
        </mxCell>
        <mxCell id="rt-HZhOnsBdVdCcZP3zS-62" value="Backend- External" style="verticalAlign=top;align=left;spacingTop=8;spacingLeft=2;spacingRight=12;shape=cube;size=10;direction=south;fontStyle=4;html=1;whiteSpace=wrap;" parent="1" vertex="1">
          <mxGeometry x="-180" y="560" width="220" height="210" as="geometry" />
        </mxCell>
        <mxCell id="rt-HZhOnsBdVdCcZP3zS-64" value="&amp;lt;&amp;lt;HTTP/HTTPS&amp;gt;&amp;gt;" style="text;html=1;align=center;verticalAlign=middle;resizable=0;points=[];autosize=1;strokeColor=none;fillColor=none;" parent="1" vertex="1">
          <mxGeometry x="30" y="670" width="130" height="30" as="geometry" />
        </mxCell>
        <mxCell id="rt-HZhOnsBdVdCcZP3zS-65" value="Database" style="verticalAlign=top;align=left;spacingTop=8;spacingLeft=2;spacingRight=12;shape=cube;size=10;direction=south;fontStyle=4;html=1;whiteSpace=wrap;" parent="1" vertex="1">
          <mxGeometry x="-180" y="840" width="220" height="190" as="geometry" />
        </mxCell>
        <mxCell id="rt-HZhOnsBdVdCcZP3zS-46" value="«DataAccess»&lt;br&gt;&lt;b&gt;infambientalbd&lt;/b&gt;" style="html=1;dropTarget=0;whiteSpace=wrap;" parent="1" vertex="1">
          <mxGeometry x="-150" y="890" width="150" height="60" as="geometry" />
        </mxCell>
        <mxCell id="rt-HZhOnsBdVdCcZP3zS-47" value="" style="shape=module;jettyWidth=8;jettyHeight=4;" parent="rt-HZhOnsBdVdCcZP3zS-46" vertex="1">
          <mxGeometry x="1" width="20" height="20" relative="1" as="geometry">
            <mxPoint x="-27" y="7" as="offset" />
          </mxGeometry>
        </mxCell>
        <mxCell id="rt-HZhOnsBdVdCcZP3zS-67" value="«WebService»&lt;br&gt;&lt;b&gt;SIA&lt;/b&gt;" style="html=1;dropTarget=0;whiteSpace=wrap;" parent="1" vertex="1">
          <mxGeometry x="-145" y="610" width="150" height="60" as="geometry" />
        </mxCell>
        <mxCell id="rt-HZhOnsBdVdCcZP3zS-68" value="" style="shape=module;jettyWidth=8;jettyHeight=4;" parent="rt-HZhOnsBdVdCcZP3zS-67" vertex="1">
          <mxGeometry x="1" width="20" height="20" relative="1" as="geometry">
            <mxPoint x="-27" y="7" as="offset" />
          </mxGeometry>
        </mxCell>
        <mxCell id="rt-HZhOnsBdVdCcZP3zS-69" value="&amp;lt;&amp;lt;TCP/IP&amp;gt;&amp;gt;" style="text;html=1;align=center;verticalAlign=middle;resizable=0;points=[];autosize=1;strokeColor=none;fillColor=none;" parent="1" vertex="1">
          <mxGeometry x="-60" y="780" width="90" height="30" as="geometry" />
        </mxCell>
        <mxCell id="rt-HZhOnsBdVdCcZP3zS-70" value="«WebService»&lt;br&gt;&lt;b&gt;loginMA&lt;/b&gt;" style="html=1;dropTarget=0;whiteSpace=wrap;" parent="1" vertex="1">
          <mxGeometry x="-145" y="690" width="150" height="60" as="geometry" />
        </mxCell>
        <mxCell id="rt-HZhOnsBdVdCcZP3zS-71" value="" style="shape=module;jettyWidth=8;jettyHeight=4;" parent="rt-HZhOnsBdVdCcZP3zS-70" vertex="1">
          <mxGeometry x="1" width="20" height="20" relative="1" as="geometry">
            <mxPoint x="-27" y="7" as="offset" />
          </mxGeometry>
        </mxCell>
        <mxCell id="rt-HZhOnsBdVdCcZP3zS-72" value="«DataAccess»&lt;br&gt;&lt;b&gt;adminis&lt;/b&gt;" style="html=1;dropTarget=0;whiteSpace=wrap;" parent="1" vertex="1">
          <mxGeometry x="-150" y="960" width="150" height="60" as="geometry" />
        </mxCell>
        <mxCell id="rt-HZhOnsBdVdCcZP3zS-73" value="" style="shape=module;jettyWidth=8;jettyHeight=4;" parent="rt-HZhOnsBdVdCcZP3zS-72" vertex="1">
          <mxGeometry x="1" width="20" height="20" relative="1" as="geometry">
            <mxPoint x="-27" y="7" as="offset" />
          </mxGeometry>
        </mxCell>
        <mxCell id="GkGEDXW25o6WeSxKUza2-1" value="Mode Cluster: 3 instances" style="text;html=1;strokeColor=none;fillColor=none;align=center;verticalAlign=middle;whiteSpace=wrap;rounded=0;" vertex="1" parent="1">
          <mxGeometry x="350.5" y="320" width="136" height="30" as="geometry" />
        </mxCell>
      </root>
    </mxGraphModel>
  </diagram>
</mxfile>
